<?xml version="1.0" standalone="no"?><!DOCTYPE svg PUBLIC "-//W3C//DTD SVG 1.1//EN" "http://www.w3.org/Graphics/SVG/1.1/DTD/svg11.dtd"><svg t="1623727465837" class="icon" viewBox="0 0 1024 1024" version="1.1" xmlns="http://www.w3.org/2000/svg" p-id="1538" xmlns:xlink="http://www.w3.org/1999/xlink" width="200" height="200"><defs><style type="text/css"></style></defs><path d="M826.624 782.368h-49.376l-17.312-12.992-15.36 12.992h-51.68v-15.328l29.76-25.28-29.088-21.632V683.2h53.6v22.624l9.152 7.328 11.136-9.28v-29.312h-83.68v107.808h-58.88v-234.56h196.16v65.44l-7.52 26.368h-61.76l10.432-31.936v-33.28h-78.432v73.536h137.28v70.88l-27.456 22.944 33.024 25.28v15.328z m-207.584-173.696h-27.808v65.216l27.808-2.656v29.952l-27.808 2.656v43.584l-10.464 34.592h-57.856l10.464-33.92V709.12l-31.36 3.008v-29.6l31.36-3.008V608.64h-31.36v-29.952h31.36v-34.56h57.856v34.56h27.808v29.952zM49.216 329.312v644.992c0 22.368 26.88 49.696 48.832 49.696h829.12C949.12 1024 976 996.672 976 974.304V329.28H49.216zM258.24 748.8h157.76v-67.2H258.24v67.2z m0 32v0.64H198.4V550.4h277.44v231.04H416v-0.64H258.24z m0-131.2h157.76v-67.2H258.24v67.2zM974.784 190.144v89.472H48V180.16c0-22.368 26.88-49.696 48.832-49.696h146.56v-74.56S245.792 1.216 293.44 1.216s47.616 54.72 47.616 54.72v74.56h341.888V43.488S689.024 0 733.024 0c43.936 0 47.616 43.52 47.616 43.52v86.976h145.28c36.64 0 48.864 38.528 48.864 59.648z" fill="#000000" p-id="1539"></path></svg>