<?xml version="1.0" standalone="no"?><!DOCTYPE svg PUBLIC "-//W3C//DTD SVG 1.1//EN" "http://www.w3.org/Graphics/SVG/1.1/DTD/svg11.dtd"><svg t="1623728536982" class="icon" viewBox="0 0 1024 1024" version="1.1" xmlns="http://www.w3.org/2000/svg" p-id="5806" xmlns:xlink="http://www.w3.org/1999/xlink" width="200" height="200"><defs><style type="text/css"></style></defs><path d="M695.466667 571.733333l-46.933333-34.133333c-17.066667-12.8-34.133333-29.866667-34.133333-59.733333 0-29.866667 21.333333-55.466667 42.666667-68.266667 55.466667-42.666667 110.933333-89.6 110.933333-183.466667 0-89.6-55.466667-140.8-85.333333-166.4l72.533333 0L806.4 0l-264.533333 0C354.133333 0 260.266667 119.466667 260.266667 247.466667c0 98.133333 76.8 204.8 213.333333 204.8l34.133333 0c-4.266667 12.8-17.066667 34.133333-17.066667 55.466667 0 42.666667 17.066667 59.733333 38.4 85.333333-59.733333 4.266667-170.666667 17.066667-251.733333 68.266667-76.8 46.933333-98.133333 110.933333-98.133333 157.866667 0 98.133333 89.6 192 281.6 192 230.4 0 341.333333-128 341.333333-251.733333C802.133333 669.866667 755.2 622.933333 695.466667 571.733333zM371.2 183.466667c0-93.866667 55.466667-136.533333 115.2-136.533333 110.933333 0 170.666667 149.333333 170.666667 234.666667 0 110.933333-89.6 132.266667-123.733333 132.266667C426.666667 413.866667 371.2 281.6 371.2 183.466667zM524.8 951.466667c-140.8 0-230.4-64-230.4-157.866667 0-93.866667 85.333333-123.733333 110.933333-136.533333 55.466667-17.066667 128-21.333333 140.8-21.333333 12.8 0 21.333333 0 29.866667 0 102.4 72.533333 145.066667 102.4 145.066667 170.666667C721.066667 887.466667 640 951.466667 524.8 951.466667z" p-id="5807"></path></svg>