<?xml version="1.0" standalone="no"?><!DOCTYPE svg PUBLIC "-//W3C//DTD SVG 1.1//EN" "http://www.w3.org/Graphics/SVG/1.1/DTD/svg11.dtd"><svg t="1623727588691" class="icon" viewBox="0 0 1024 1024" version="1.1" xmlns="http://www.w3.org/2000/svg" p-id="3932" xmlns:xlink="http://www.w3.org/1999/xlink" width="200" height="200"><defs><style type="text/css"></style></defs><path d="M300.5 291.8h-81.3c-18.3 0-33.3 15-33.3 33.3 0 18.3 15 33.3 33.3 33.3h81.3c18.3 0 33.3-15 33.3-33.3 0-18.3-15-33.3-33.3-33.3zM300.5 452.9h-81.3c-18.3 0-33.3 15-33.3 33.3 0 18.3 15 33.3 33.3 33.3h81.3c18.3 0 33.3-15 33.3-33.3 0-18.3-15-33.3-33.3-33.3zM300.5 610.1h-81.3c-18.3 0-33.3 15-33.3 33.3 0 18.3 15 33.3 33.3 33.3h81.3c18.3 0 33.3-15 33.3-33.3 0-18.3-15-33.3-33.3-33.3zM670 291.8h-81.3c-18.3 0-33.3 15-33.3 33.3 0 18.3 15 33.3 33.3 33.3H670c18.3 0 33.3-15 33.3-33.3 0-18.3-15-33.3-33.3-33.3zM485.3 291.8H404c-18.3 0-33.3 15-33.3 33.3 0 18.3 15 33.3 33.3 33.3h81.3c18.3 0 33.3-15 33.3-33.3-0.1-18.3-15.1-33.3-33.3-33.3zM485.3 452.9H404c-18.3 0-33.3 15-33.3 33.3 0 18.3 15 33.3 33.3 33.3h81.3c18.3 0 33.3-15 33.3-33.3-0.1-18.3-15.1-33.3-33.3-33.3zM925.8 563.6v-68.4H960V461H617.8v34.2H652v68.4h13.8l97 97-108.4 108.3H652v68.4h-34.2v34.2H960v-34.2h-34.2v-68.4h-6.3L811.2 660.5l97-97h17.6z m-34.2 225.7v48.1H686.2v-51.9L787 684.7l104.6 104.6z m0-257.6L787 636.3 686.2 535.6v-40.4h205.3v36.5z" p-id="3933"></path><path d="M555.5 760.8H123.9l-0.1-0.1V215.6l0.1-0.1h729.3l0.1 0.1v142.1H913V215.4c0-34.6-26.9-62.9-59.7-62.9H123.7c-32.8 0-59.7 28.3-59.7 62.9v545.5c0 34.6 26.9 62.9 59.7 62.9h431.8v-63z" p-id="3934"></path></svg>