<?xml version="1.0" standalone="no"?><!DOCTYPE svg PUBLIC "-//W3C//DTD SVG 1.1//EN" "http://www.w3.org/Graphics/SVG/1.1/DTD/svg11.dtd"><svg t="1623727535782" class="icon" viewBox="0 0 1024 1024" version="1.1" xmlns="http://www.w3.org/2000/svg" p-id="3000" xmlns:xlink="http://www.w3.org/1999/xlink" width="200" height="200"><defs><style type="text/css"></style></defs><path d="M376.2176 713.591467a172.2368 172.2368 0 1 1-344.405333 0 172.2368 172.2368 0 0 1 344.405333 0zM204.117333 803.157333a89.4976 89.4976 0 1 0 0-179.063466 89.4976 89.4976 0 0 0 0 179.063466z m306.7904-409.1904a172.305067 172.305067 0 0 1 0-344.4736 172.305067 172.305067 0 0 1 0 344.4736z m0-261.802666a89.4976 89.4976 0 1 0-0.068266 179.063466 89.4976 89.4976 0 0 0 0-179.063466z m309.998934 409.1904a172.2368 172.2368 0 1 1 0 344.4736 172.2368 172.2368 0 0 1 0-344.4736z m0 261.802666a89.4976 89.4976 0 1 0 0-179.063466 89.4976 89.4976 0 0 0 0 179.063466z m13.789866-288.426666a327.543467 327.543467 0 0 0-137.693866-221.730134 199.2704 199.2704 0 0 0 12.424533-89.565866 410.077867 410.077867 0 0 1 210.807467 337.237333 197.154133 197.154133 0 0 0-85.538134-25.941333zM672.426667 846.779733c20.0704 22.3232 45.056 40.004267 73.1136 51.473067a407.552 407.552 0 0 1-234.837334 73.9328 408.439467 408.439467 0 0 1-233.608533-73.045333 199.4752 199.4752 0 0 0 74.069333-51.063467 326.109867 326.109867 0 0 0 159.607467 41.437867c58.709333 0 114.005333-15.496533 161.655467-42.734934z m-347.818667-553.642666A326.656 326.656 0 0 0 187.050667 515.072a198.519467 198.519467 0 0 0-85.674667 27.716267 409.941333 409.941333 0 0 1 210.944-339.217067 199.2704 199.2704 0 0 0 12.424533 89.565867z" p-id="3001"></path></svg>