<?xml version="1.0" standalone="no"?><!DOCTYPE svg PUBLIC "-//W3C//DTD SVG 1.1//EN" "http://www.w3.org/Graphics/SVG/1.1/DTD/svg11.dtd"><svg t="1623727519624" class="icon" viewBox="0 0 1024 1024" version="1.1" xmlns="http://www.w3.org/2000/svg" p-id="2466" xmlns:xlink="http://www.w3.org/1999/xlink" width="200" height="200"><defs><style type="text/css"></style></defs><path d="M281.05616 234.592a74.816 74.816 0 0 1-74.768 74.832H74.70416A74.72 74.72 0 0 1 0.00016 234.592V159.824A74.656 74.656 0 0 1 74.70416 85.12h131.584a74.752 74.752 0 0 1 74.768 74.704v74.768zM652.52816 234.592a74.832 74.832 0 0 1-74.784 74.832h-131.568a74.736 74.736 0 0 1-74.768-74.832V159.824a74.672 74.672 0 0 1 74.768-74.704h131.568a74.768 74.768 0 0 1 74.784 74.704v74.768zM1024.00016 234.592a74.832 74.832 0 0 1-74.768 74.832h-131.584a74.848 74.848 0 0 1-74.848-74.832V159.824a74.784 74.784 0 0 1 74.848-74.704h131.584A74.752 74.752 0 0 1 1024.00016 159.824v74.768zM281.05616 548.816a74.88 74.88 0 0 1-74.768 74.848H74.70416A74.784 74.784 0 0 1 0.00016 548.816v-74.704a74.624 74.624 0 0 1 74.704-74.768h131.584a74.72 74.72 0 0 1 74.768 74.768v74.704zM653.34416 548.816a74.72 74.72 0 0 1-74.768 74.848h-131.52a74.784 74.784 0 0 1-74.768-74.848v-74.704a74.72 74.72 0 0 1 74.768-74.768h131.52a74.64 74.64 0 0 1 74.768 74.768v74.704zM281.05616 863.04a74.752 74.752 0 0 1-74.768 74.704H74.70416A74.656 74.656 0 0 1 0.00016 863.04v-74.784a74.672 74.672 0 0 1 74.704-74.768h131.584a74.768 74.768 0 0 1 74.768 74.768v74.784z" fill="#3E3A39" p-id="2467"></path><path d="M399.71216 938.896a27.456 27.456 0 0 1-27.424-27.424v-171.68c0-15.12 12.304-27.424 27.424-27.424h343.232V425.504c0-15.2 12.304-27.424 27.424-27.424h226.16a27.424 27.424 0 1 1 0 54.848h-198.72v286.864c0 15.2-12.24 27.44-27.44 27.44H427.13616v144.256c0 15.104-12.288 27.408-27.424 27.408z" fill="#3E3A39" p-id="2468"></path></svg>