<?xml version="1.0" standalone="no"?><!DOCTYPE svg PUBLIC "-//W3C//DTD SVG 1.1//EN" "http://www.w3.org/Graphics/SVG/1.1/DTD/svg11.dtd"><svg t="1623727480719" class="icon" viewBox="0 0 1024 1024" version="1.1" xmlns="http://www.w3.org/2000/svg" p-id="1668" xmlns:xlink="http://www.w3.org/1999/xlink" width="200" height="200"><defs><style type="text/css"></style></defs><path d="M252.0832 603.63776h175.78496V463.02208H252.0832v140.61568z m210.93888 0h175.77984V463.02208H463.02208v140.61568z m-210.93888 175.79008h175.78496v-140.63104H252.0832v140.63104z m0-351.5648h175.78496V287.24224H252.0832v140.6208z m210.93888-140.6208v140.62592h175.77984V287.24224H463.02208z m210.93888 0v140.62592h175.77984V287.24224h-175.77984z m-134.45632 449.72032c-1.12128 6.13376-4.64896 20.8128-5.77024 28.99968H464.00512v-2.60608c13.63456-0.7424 14.75584-3.90144 14.75584-19.52768V670.7712c0-14.49984-1.12128-17.664-15.40096-18.5856v-2.60096h39.76192v2.60096c-14.592 0.9216-16.0256 4.08576-16.0256 18.5856v70.45632c0 19.712 3.84512 20.26496 20.19328 20.26496 9.61024 0 17.3056-2.23744 21.00224-6.69696a78.4128 78.4128 0 0 0 8.33536-17.8432h2.88256v0.01024z m62.82752 26.3936c16.03072-0.93184 17.152-4.09088 17.152-18.23232v-91.0848h-9.93792c-21.00224 0-23.07584 4.09088-27.88352 23.6032h-2.57024c0.96256-10.97216 1.44384-22.10816 1.76128-32.52736h2.57024c1.1264 2.2272 2.24768 3.34848 3.52256 3.90656 1.28512 0.55808 2.8928 0.55808 5.14048 0.55808h64.59904c4.16768 0 5.28896-0.94208 7.53664-4.46464l2.72384 0.1792c-0.32256 8.73984 0.64 20.4544 1.44384 31.60576l-2.71872 0.7424c-3.85024-21.00224-9.93792-23.6032-23.57248-23.6032h-14.25408v91.0848c0 14.1312 1.12128 17.29536 17.792 18.23232v2.60608h-43.27936v-2.60608h-0.0256zM816.64 652.1856c-11.54048 1.85856-12.66176 4.45952-19.71712 20.6336-2.72896 5.39136-23.56224 57.81504-36.55168 95.1808h-2.08896c-10.4192-33.27488-22.28736-65.9968-33.664-99.26144-4.49024-13.19424-6.89152-15.80544-16.67072-16.55296v-2.60096h34.63168v2.60096c-8.0128 1.1264-11.55072 1.67936-11.55072 6.13888 0 1.664 0.4864 3.71712 1.45408 6.50752 3.51744 10.78272 15.86176 47.4112 29.49632 85.33504h0.1536c3.19488-7.80288 30.7712-79.93344 30.7712-90.17344 0-5.56544-3.84512-6.12352-12.1856-7.80288v-2.60096h35.9168l0.00512 2.59584z" p-id="1669"></path></svg>