<?xml version="1.0" standalone="no"?><!DOCTYPE svg PUBLIC "-//W3C//DTD SVG 1.1//EN" "http://www.w3.org/Graphics/SVG/1.1/DTD/svg11.dtd"><svg t="1623727597096" class="icon" viewBox="0 0 1024 1024" version="1.1" xmlns="http://www.w3.org/2000/svg" p-id="4196" xmlns:xlink="http://www.w3.org/1999/xlink" width="200" height="200"><defs><style type="text/css"></style></defs><path d="M874.24 338.24l0.96 383.68-332.8 193.6 0.32-385.6 331.52-191.68z m-725.44 0l332.8 193.6-0.96 383.68-331.52-191.68-0.32-385.6z m64.32 111.36v237.12L416.96 804.8l0.64-236.16L213.12 449.6z m597.44-0.32L606.72 567.36v237.12L811.2 685.44l-0.64-236.16zM513.28 108.16l331.84 191.36-331.84 192.64L179.2 300.8l334.08-192.64z m0 73.92l-205.76 118.4 205.76 117.44 204.16-118.4-204.16-117.44z" p-id="4197"></path></svg>