<?xml version="1.0" standalone="no"?><!DOCTYPE svg PUBLIC "-//W3C//DTD SVG 1.1//EN" "http://www.w3.org/Graphics/SVG/1.1/DTD/svg11.dtd"><svg t="1623727606085" class="icon" viewBox="0 0 1024 1024" version="1.1" xmlns="http://www.w3.org/2000/svg" p-id="4467" xmlns:xlink="http://www.w3.org/1999/xlink" width="200" height="200"><defs><style type="text/css"></style></defs><path d="M508.679314 1018.048609C445.586259 1018.048609 387.474233 1009.746891 337.663928 993.143454 287.853622 976.54002 244.684689 954.955554 209.817475 928.390056 174.95026 901.824559 145.064076 871.938376 125.139954 838.731504 105.215831 805.524635 90.27274 770.65742 83.631365 737.450549 75.329647 700.922991 75.329647 664.395434 80.310679 629.528219 85.291709 596.321347 95.25377 564.774821 110.196863 534.888638 125.139954 505.002452 141.74339 478.436958 163.327857 453.531803 183.251979 430.286994 206.496788 408.702528 231.401942 388.778405 251.326064 373.835314 267.929501 358.892219 284.532936 345.609473 299.476027 332.326725 312.758776 320.704319 322.720837 309.081914L324.381181 307.42157C332.682899 299.119852 340.984616 290.818135 347.625991 284.176761 347.625991 277.535386 347.625991 269.233669 345.965647 259.271607 345.965647 252.630233 345.965647 242.668172 344.305303 237.687141 340.984616 232.70611 337.663929 227.72508 334.343242 222.744049 329.362212 216.102675 324.381181 209.461301 319.40015 202.819927 312.758776 194.518209 306.117402 187.876836 299.476029 181.235461 291.17431 174.594087 282.872593 167.952713 274.570875 162.971682 257.96744 153.009621 248.005378 139.726872 241.364004 121.463093 233.062286 96.55794 241.364004 73.313131 262.94847 58.370038L264.608814 58.370038C276.231219 51.728664 289.513967 48.407977 302.796715 50.06832 311.098433 51.728664 321.060494 53.389007 329.362212 55.049351 337.66393 56.709694 344.305303 58.370037 352.607021 61.690725L355.927708 61.690725 357.588052 61.690725C364.229426 60.030381 365.88977 58.370038 365.88977 58.370038 372.531144 51.728664 384.15355 43.426947 399.096642 35.125228 415.700076 26.82351 433.963856 23.502824 452.227634 25.163167 470.491414 28.483854 485.434506 33.464886 497.056911 43.426947L500.377597 45.087291C502.03794 46.747634 503.698283 48.407977 505.358629 48.407977 507.018971 50.068321 508.679314 50.068321 510.339657 51.728664 512.000003 50.06832 512.000003 50.06832 513.660346 48.407977L515.320689 46.747633C526.943094 36.785572 540.225843 30.144198 551.848246 25.163167 568.451683 18.521793 586.715461 20.182137 608.299927 28.483854 619.922333 31.804541 629.884393 36.785572 636.525767 43.426946 641.506798 46.747632 644.827487 50.06832 649.808516 53.389007 651.468861 55.049351 654.789547 56.709693 658.110236 58.370037L663.091264 58.370037C668.072296 58.370037 671.392985 58.370037 671.392985 56.709693 676.374013 55.04935 683.015387 51.728663 687.996419 50.068319 694.637793 48.407975 701.279168 46.747632 709.580885 45.087289 719.542945 43.426945 729.505008 45.087289 741.127411 48.407975L742.787757 48.407975C757.730848 53.389006 769.353251 63.351067 775.994625 74.973472 782.636 86.595877 784.296346 99.878625 780.975657 111.50103 779.315314 121.463091 774.334283 131.425152 767.692908 141.387214 761.051534 149.688932 752.749817 157.99065 742.787754 162.97168 727.844662 171.273398 721.203288 177.914772 717.882602 181.23546 711.241228 189.537178 702.93951 197.838895 696.298136 206.140613 692.977447 211.121644 687.996416 216.102674 684.67573 221.083704 681.355045 224.404391 679.694699 229.385423 676.374013 232.706109L676.374013 252.630232 676.374013 279.195728C683.015387 285.837102 689.656762 294.138819 697.958479 300.780194L697.958479 300.780194C709.580882 312.402599 722.863631 324.025005 739.467068 338.968096 756.070502 352.250845 774.334283 367.193936 795.918749 383.797371L795.918749 383.797371C815.842869 398.740462 835.766992 417.004243 855.691115 436.928366 877.275581 458.512832 895.539361 483.417983 912.142795 511.643824 928.74623 539.869664 940.368636 574.736878 945.349667 611.264436 951.991041 647.791996 950.330696 689.300582 942.028978 734.12986 933.727261 772.31776 918.78417 808.845318 897.199704 842.05219 873.954895 875.259061 844.068709 905.145245 807.541151 930.050396 771.013594 954.955551 727.844662 973.219328 678.034356 988.162422 626.563704 1009.746891 571.772366 1018.048609 508.679314 1018.048609L508.679314 1018.048609ZM367.550112 353.911191C355.927707 365.533597 342.644958 378.816345 326.041523 393.759437 309.438087 408.702528 291.174308 423.64562 271.250186 438.588711 249.66572 455.192146 229.741597 473.455926 211.477819 495.040392 193.21404 514.964515 178.270948 538.209324 166.648543 561.454133 155.026139 584.698944 146.724421 611.264439 141.74339 639.490279 136.762359 666.055777 138.422703 694.281617 145.064076 724.1678 150.045107 750.733297 161.667512 777.298795 178.270947 803.864292 194.874383 830.429787 218.119192 855.334941 248.005377 876.919407 277.891561 898.503873 314.419118 918.427996 357.588051 931.710745 400.756982 946.653836 452.227634 953.295211 508.679314 953.295211 565.130995 953.295211 614.941301 946.653836 658.110233 935.031431 701.279165 923.409025 737.806722 906.80559 769.353251 885.221124 799.239434 865.297001 824.144586 842.052193 840.748023 815.486695 859.011801 788.921198 870.634206 760.695357 877.275581 730.809174 883.916955 694.281617 885.577298 659.414402 880.596266 629.528219 875.615238 599.642033 867.313518 573.076539 854.030772 549.831727 840.748023 526.586918 825.804932 506.662795 807.541151 488.399018 789.277371 470.135237 771.013594 453.531803 754.410157 440.249054 731.165348 423.64562 711.241225 407.042183 694.63779 392.099091 678.034356 377.155999 663.091264 363.873251 651.468859 352.250848 641.506798 342.288785 633.205078 333.987068 624.903361 325.68535L394.115607 325.68535C385.81389 335.64741 377.512173 345.609473 367.550112 353.911191L367.550112 353.911191ZM528.603437 575.013604 619.92233 486.738675C629.884393 476.776612 629.884393 461.83352 619.92233 451.87146 609.96027 441.909397 595.017178 441.909397 585.055115 451.87146L504.528454 532.398121 422.341448 450.211117C412.379388 440.249054 397.436296 440.249054 387.474233 450.211117 377.512173 460.173177 377.512173 475.116269 387.474233 485.078332L478.793128 576.397227 478.793128 589.679973 405.738013 589.679973C392.455265 589.679973 380.832859 601.302379 380.832859 614.585127 380.832859 627.867876 392.455265 639.490279 405.738013 639.490279L478.793128 639.490279 478.793128 687.640242 405.738013 687.640242C392.455265 687.640242 380.832859 699.262648 380.832859 712.545397 380.832859 725.828146 392.455265 737.450549 405.738013 737.450549L478.793128 737.450549 478.793128 810.505667C478.793128 823.788415 490.415534 835.410818 503.698283 835.410818 516.981031 835.410818 526.943092 823.788415 528.603437 810.505667L528.603437 737.450549 601.658552 737.450549C614.941301 737.450549 624.903361 727.488489 626.563704 712.545397 626.563704 699.262648 614.941301 687.640242 601.658552 687.640242L528.603437 687.640242 528.603437 639.490279 601.658552 639.490279C614.941301 639.490279 624.903361 629.528219 626.563704 614.585127 626.563704 601.302379 614.941301 589.679973 601.658552 589.679973L528.603437 589.679973 528.603437 575.013604ZM407.398356 264.252639 606.639581 264.252639 606.639581 260.931953C606.639581 234.366456 606.639581 222.744051 613.280955 211.121646 618.261987 204.480272 623.243018 197.838898 628.224047 189.537181 633.205078 182.895806 638.18611 177.914776 641.506796 172.933745 649.808516 162.971684 658.110233 153.009623 666.41195 144.707905 674.713667 134.745844 686.336073 126.444126 699.618822 118.142408 696.298133 119.802752 694.63779 119.802752 691.317102 121.463095 683.015385 124.783782 671.392982 126.444126 659.770576 126.444126 648.14817 126.444126 636.525767 124.783782 626.563704 119.802751 619.92233 116.482065 613.280955 111.501033 606.639584 106.520003 601.658552 103.199316 598.337864 99.878628 593.356835 94.897598 593.356835 94.897598 591.696489 93.237254 586.715461 91.576911L585.055115 91.576911C575.093055 88.256223 570.112023 89.916566 570.112023 89.916566 565.130995 91.57691 558.48962 94.897597 551.848246 99.878627 541.886183 108.180345 535.244809 113.161376 528.603434 116.482063 523.622406 121.463094 515.320686 123.123438 508.679314 123.123438L502.03794 123.123438 495.396566 119.802751C488.755191 116.482065 483.77416 114.821721 478.793128 111.501033 475.472443 109.840689 470.491411 106.520002 467.170725 104.859659 462.189694 101.538972 458.869005 98.218284 453.887977 93.237254 452.227631 93.237254 450.567288 91.57691 443.925914 89.916567 438.944885 89.916567 433.963854 89.916567 430.643165 91.576911 417.360416 99.878629 410.719045 104.85966 409.058699 104.85966 399.096639 114.821721 385.81389 119.802751 369.210456 123.123439 357.58805 124.783783 345.965645 124.783783 334.34324 121.463095 329.36221 119.802751 322.720835 118.142408 317.739805 116.482065 324.381179 121.463095 332.682896 126.444126 339.324271 133.0855 350.946676 143.047561 360.908737 153.009622 370.870799 166.292371 374.191484 171.273401 379.172516 176.254432 384.153547 182.895806 389.134576 189.537181 395.77595 197.838898 400.756982 204.480272 409.058699 216.102677 409.058699 229.385426 409.058699 255.950922 407.398356 260.931952 407.398356 262.592295 407.398356 264.252639Z" p-id="4468"></path></svg>