<?xml version="1.0" standalone="no"?><!DOCTYPE svg PUBLIC "-//W3C//DTD SVG 1.1//EN" "http://www.w3.org/Graphics/SVG/1.1/DTD/svg11.dtd"><svg t="1624348710544" class="icon" viewBox="0 0 1047 1024" version="1.1" xmlns="http://www.w3.org/2000/svg" p-id="7355" xmlns:xlink="http://www.w3.org/1999/xlink" width="204.4921875" height="200"><defs><style type="text/css"></style></defs><path d="M535.272727 23.272727c269.893818 0 488.727273 218.833455 488.727273 488.727273s-218.833455 488.727273-488.727273 488.727273S46.545455 781.893818 46.545455 512 265.378909 23.272727 535.272727 23.272727z m0.116364 65.559273c-57.181091 0-112.593455 11.240727-164.724364 33.28a423.773091 423.773091 0 0 0-134.516363 90.763636 419.584 419.584 0 0 0-90.763637 134.516364 420.910545 420.910545 0 0 0-33.28 164.724364c0 57.157818 11.240727 112.570182 33.28 164.724363a425.565091 425.565091 0 0 0 90.763637 134.516364 419.584 419.584 0 0 0 134.516363 90.763636c52.130909 22.016 107.543273 33.28 164.724364 33.28 57.157818 0 112.570182-11.264 164.724364-33.28a425.565091 425.565091 0 0 0 225.28-225.28 420.910545 420.910545 0 0 0 33.28-164.724363c0-57.181091-11.264-112.593455-33.28-164.724364a423.773091 423.773091 0 0 0-90.763637-134.516364 419.584 419.584 0 0 0-134.516363-90.763636 420.910545 420.910545 0 0 0-164.724364-33.28z m101.771636 476.625455a98.210909 98.210909 0 1 1 0 196.352 98.210909 98.210909 0 0 1 0-196.352z m64.046546-267.706182a32.721455 32.721455 0 0 1 46.242909 0c12.660364 12.637091 12.660364 33.489455 0 46.242909L369.338182 721.989818a32.721455 32.721455 0 0 1-46.242909-46.242909z m-64.046546 333.149091a32.814545 32.814545 0 0 0-32.721454 32.744727 32.814545 32.814545 0 0 0 32.721454 32.721454c18.106182 0 32.721455-14.731636 32.721455-32.721454a32.814545 32.814545 0 0 0-32.721455-32.744727z m-195.607272-368.709819a98.210909 98.210909 0 1 1 0 196.375273 98.210909 98.210909 0 0 1 0-196.375273z m0 65.44291a32.814545 32.814545 0 0 0-32.721455 32.721454 32.814545 32.814545 0 0 0 32.721455 32.744727 32.814545 32.814545 0 0 0 32.744727-32.744727 32.814545 32.814545 0 0 0-32.744727-32.721454z" p-id="7356"></path></svg>