<?xml version="1.0" standalone="no"?><!DOCTYPE svg PUBLIC "-//W3C//DTD SVG 1.1//EN" "http://www.w3.org/Graphics/SVG/1.1/DTD/svg11.dtd"><svg t="1623981311153" class="icon" viewBox="0 0 1024 1024" version="1.1" xmlns="http://www.w3.org/2000/svg" p-id="5284" xmlns:xlink="http://www.w3.org/1999/xlink" width="200" height="200"><defs><style type="text/css"></style></defs><path d="M553.9 43.8l-1-1.9c-0.5-0.5-0.9-0.9-1.9-0.9l-1.9 0.5c-0.9 0.9-1.4 1.4-1.4 2.4l-40.7 736 6.2-1 39.2-716 46.9 77h-0.5c35.4 104.2 50.2 215.2 44.5 332.9l2.9 4.3 46.4 82.2 2.9 2.9c71.3 62.7 151.1 104.7 239.6 126.3l21.5 34.9 2.9 0.9 0.5-0.9L553 57.6l0.9-13.8z" p-id="5285"></path><path d="M539.5 303.5c50.2 102.8 68.4 258.3 55 466.3l195.6-23.9-250.6-442.4zM985.3 755.4c20.1-2.4 33-6.7 38.7-12.9L0.5 867.3H0c0.5 42.6 19.6 76.1 56.9 100 10 7.2 20.6 12.4 30.1 15.8 9.1-10.5 19.1-18.2 31.1-25.3h0.5c107.1-65 266.4-75.1 476.8-30.6l2.4 0.5c23 4.8 45.9 10.5 67.4 17.2 6.2 1 11.5-0.9 15.8-4.8 7.7-5.7 17.2-10 30.1-12.9v-0.5c34-60.3 79.9-104.7 137.3-133.9 39.8-19.7 85.7-32.6 136.9-37.4zM493.6 774.1l46.9-718.4c-67.9 262.1-177 507-326.7 734.2l279.8-15.8zM230.1 195.4l-1.9-1-1.9 0.5-1 2.4L186.6 819l5.7-0.4L231 197.3zM175.6 805.7l41.1-606.5L0 824.3z" p-id="5286"></path></svg>