<?xml version="1.0" standalone="no"?><!DOCTYPE svg PUBLIC "-//W3C//DTD SVG 1.1//EN" "http://www.w3.org/Graphics/SVG/1.1/DTD/svg11.dtd"><svg t="1623727543709" class="icon" viewBox="0 0 1024 1024" version="1.1" xmlns="http://www.w3.org/2000/svg" p-id="3130" xmlns:xlink="http://www.w3.org/1999/xlink" width="200" height="200"><defs><style type="text/css"></style></defs><path d="M954.4704 695.04l-85.8624-320.3584c-19.1488-71.4752-83.8144-118.6304-154.4704-118.6304h-0.4608L536.9344 256v-33.0752c0-24.832 20.1728-45.0048 45.0048-45.0048 13.824 0 24.9856-11.2128 24.9856-24.9856S595.8144 128 581.9904 128c-52.3776 0-94.976 42.5984-94.976 94.976v33.0752L308.992 256c-70.2976 0.3584-134.8096 48.2816-153.856 119.5008l-85.6064 319.5392c-22.8864 85.3504 27.8016 173.1072 113.152 195.9424 13.8752 3.7376 27.8016 5.4784 41.5232 5.4784 70.656 0 135.2704-47.1552 154.4704-118.6304l10.1376-37.8368c6.0416-20.7872 25.2928-36.0448 48.0256-36.0448h150.9888c22.7328 0 41.9328 15.2576 48.0256 36.0448l9.6768 37.8368c19.1488 71.4752 83.8144 118.6304 154.4704 118.6304 13.7216 0 27.648-1.792 41.5232-5.4784 85.1968-22.8352 135.8336-110.592 112.9472-195.9424z m-59.2384 96.4096c-14.6944 25.4464-38.4 43.6224-66.816 51.2512-9.3696 2.5088-18.9952 3.7888-28.5696 3.7888-49.5616 0-93.1328-33.4336-106.0864-81.3056l-9.5744-37.5296-0.2048-0.8192-0.256-0.8192a100.8384 100.8384 0 0 0-35.4304-51.5584 99.2256 99.2256 0 0 0-60.5696-20.4288H436.736c-22.0672 0-43.008 7.0656-60.5696 20.4288-16.9472 12.9024-29.4912 31.232-35.4304 51.5584l-0.1536 0.512-0.1536 0.512-10.1376 37.8368c-12.8512 48.0256-56.5248 81.5616-106.1376 81.5616-9.5744 0-19.2-1.28-28.5696-3.7888-28.3648-7.6288-52.1216-25.8048-66.816-51.2512a109.3632 109.3632 0 0 1-11.008-83.456l85.6064-319.5392c6.4-23.9104 20.1728-44.4928 39.8336-59.5968 19.0464-14.592 42.4448-22.7328 65.8432-22.8864l404.5824 0.0512h0.4608c49.6128 0 93.2864 33.536 106.1376 81.5616l85.8624 320.3584c7.7312 28.4672 3.84 58.112-10.8544 83.5584z" p-id="3131"></path><path d="M321.024 402.0224c-60.7744 0-109.9776 49.2544-109.9776 109.9776s49.2544 109.9776 109.9776 109.9776 109.9776-49.2544 109.9776-109.9776-49.2544-109.9776-109.9776-109.9776z m0 169.984c-33.0752 0-60.0064-26.9312-60.0064-60.0064s26.9312-60.0064 60.0064-60.0064S380.9792 478.9248 380.9792 512s-26.88 60.0064-59.9552 60.0064zM668.9792 436.992c0 19.3536 15.6672 35.0208 35.0208 35.0208s35.0208-15.6672 35.0208-35.0208-15.6672-35.0208-35.0208-35.0208-35.0208 15.7184-35.0208 35.0208zM668.9792 587.008c0 19.3536 15.6672 35.0208 35.0208 35.0208s35.0208-15.6672 35.0208-35.0208-15.6672-35.0208-35.0208-35.0208-35.0208 15.6672-35.0208 35.0208zM743.9872 512c0 19.3536 15.6672 35.0208 35.0208 35.0208s35.0208-15.6672 35.0208-35.0208-15.6672-35.0208-35.0208-35.0208-35.0208 15.6672-35.0208 35.0208zM594.0224 512c0 19.3536 15.6672 35.0208 35.0208 35.0208s35.0208-15.6672 35.0208-35.0208-15.6672-35.0208-35.0208-35.0208-35.0208 15.6672-35.0208 35.0208z" p-id="3132"></path></svg>