<?xml version="1.0" standalone="no"?><!DOCTYPE svg PUBLIC "-//W3C//DTD SVG 1.1//EN" "http://www.w3.org/Graphics/SVG/1.1/DTD/svg11.dtd"><svg t="1623727491419" class="icon" viewBox="0 0 1024 1024" version="1.1" xmlns="http://www.w3.org/2000/svg" p-id="1798" xmlns:xlink="http://www.w3.org/1999/xlink" width="200" height="200"><defs><style type="text/css"></style></defs><path d="M922.007968 85.090495h-728.514513c-22.146841 0-36.717131 14.57029-36.717132 36.717132v72.851451h58.281161v-51.287422h684.803643v723.852021H215.640296v-199.321571H157.359135v221.468412c0 18.06716 14.57029 36.717131 36.13432 36.717131h728.514513c22.146841 0 36.717131-18.06716 36.717132-36.717131V121.224815c0-21.56403-14.57029-36.13432-36.717132-36.13432z" p-id="1799"></path><path d="M393.980649 765.231645v58.281161h182.420034c156.776323 0 284.412066-127.635743 284.412066-284.412066V378.827547h-58.281161v160.273193c0 124.138873-101.992032 226.130905-225.548093 226.130905H393.980649zM272.173022 595.633466H201.652817l-45.459305-75.182698c-9.324986-15.735913-16.901537-25.643711-22.729653-29.723392S121.224815 483.733637 114.231076 483.733637h-18.649972v111.899829H34.385885V307.141719h101.40922c68.77177 0 103.157655 26.226522 103.157655 78.096756 0 19.815595-5.828116 36.717131-17.484348 50.70461-11.656232 13.987479-27.392146 23.895276-47.20774 29.723392v0.582812c13.404667 4.662493 27.974957 19.232783 44.293682 43.71087l53.618668 85.673307zM95.581104 353.766648V437.108708h30.306204c14.57029 0 26.226522-4.079681 34.968697-12.821855 8.742174-8.159363 13.404667-18.649972 13.404667-31.471827 0-26.226522-15.735913-39.048378-46.624929-39.048378h-32.054639zM278.58395 455.175868c0-45.459306 13.404667-82.176437 39.631189-110.734206s61.195219-42.545248 104.90609-42.545248c41.379624 0 74.599886 13.987479 99.660786 41.379625 25.060899 27.392146 37.882755 62.943654 37.882754 106.071713 0 44.876494-12.821855 81.593625-39.048377 109.568583-26.226522 27.974957-60.612408 41.962436-102.574844 41.962436-41.379624 0-75.182698-13.404667-100.826409-40.796813-26.809334-27.392146-39.63119-62.360842-39.631189-104.90609z m64.692089-3.49687c0 27.974957 6.993739 51.287422 20.398406 68.77177 13.404667 18.06716 32.054639 26.809334 55.949915 26.809334s43.128059-8.742174 56.532726-25.64371c13.404667-16.901537 20.398406-40.214001 20.398406-68.77177 0-30.306204-6.410928-53.618668-19.815594-71.103017-12.821855-17.484348-31.471827-26.226522-55.367103-26.226522s-43.128059 8.742174-57.115538 26.809334c-14.57029 17.484348-20.981218 40.796813-20.981218 69.354581z" p-id="1800"></path><path d="M670.233352 307.141719v288.491747h-61.77803V307.141719H670.233352z" p-id="1801"></path></svg>