<?xml version="1.0" standalone="no"?><!DOCTYPE svg PUBLIC "-//W3C//DTD SVG 1.1//EN" "http://www.w3.org/Graphics/SVG/1.1/DTD/svg11.dtd"><svg t="1623727547628" class="icon" viewBox="0 0 1026 1024" version="1.1" xmlns="http://www.w3.org/2000/svg" p-id="3261" xmlns:xlink="http://www.w3.org/1999/xlink" width="200.390625" height="200"><defs><style type="text/css"></style></defs><path d="M433.39776 347.83232a76.3392 76.3392 0 0 1-20.3264 20.1728l142.73024 141.3888a77.19424 77.19424 0 0 1 20.39296-20.15232l-142.7968-141.40928z m368.75264-8.8832L659.92192 488.1408a76.8512 76.8512 0 0 1 20.95104 19.61472l142.3104-149.28384a77.22496 77.22496 0 0 1-21.02784-19.5328v0.01024z m-498.81088 2.39616L217.91232 410.88a75.4432 75.4432 0 0 1 17.57184 22.6304l86.17472-70.16448a76.23168 76.23168 0 0 1-18.31424-22.01088v0.01024z m66.84672-83.13344a47.40096 47.40096 0 0 0-47.616 47.16544 47.29344 47.29344 0 0 0 69.36064 41.76384 47.04256 47.04256 0 0 0 20.3008-20.1984 45.7472 45.7472 0 0 0 5.50912-21.54496 47.34976 47.34976 0 0 0-47.53408-47.16544l-0.02048-0.02048z m269.42976 251.25888a46.96576 46.96576 0 0 0-62.50496 22.48192c-11.0592 23.46496-0.98816 51.456 22.48192 62.50496 23.46496 11.0592 51.45088 0.98816 62.50496-22.48192 2.9696-6.2976 4.49536-13.17888 4.47488-20.15232a47.616 47.616 0 0 0-26.99776-42.35776h0.04096z m224.1536-262.05696c-26.1632-0.1024-47.4624 21.02272-47.55968 47.18592-0.21504 26.27584 20.91008 47.75424 47.19104 47.96928s47.75424-20.91008 47.96928-47.18592-20.91008-47.75424-47.19104-47.96928h-0.4096zM195.4048 429.23008a47.04768 47.04768 0 0 0-65.62816 10.9824 47.0528 47.0528 0 0 0 10.9824 65.62816 47.04256 47.04256 0 0 0 74.37312-38.53312 45.93152 45.93152 0 0 0-2.70848-15.04256 47.04768 47.04768 0 0 0-17.01888-23.03488z" p-id="3262"></path><path d="M868.23424 78.17216H157.69088c-61.89056 0-112.31232 50.42688-112.31232 112.31232v504.25856c0 61.88544 50.42176 112.31744 112.31232 112.31744h710.54336c61.88544 0 112.31744-50.432 112.31744-112.31744V190.48448c2.28864-61.88544-48.14336-112.31232-112.31744-112.31232z m65.47456 625.97632c0 28.53376-23.77728 49.93024-49.93024 49.93024H146.72384c-28.52352 0-49.93024-23.77728-49.93024-49.93024V181.07904c0-28.53376 23.77728-49.93024 49.93024-49.93024h737.05984c28.53376 0 49.93024 23.77728 49.93024 49.93024v523.06944zM838.44096 924.96896h-178.7904v-18.33472c0-16.04096-11.45344-27.50464-27.49952-27.50464h-256.7168c-16.04608 0-27.50464 11.46368-27.50464 27.50464v18.33472h-176.4864c-18.33984 0-32.09216 13.76256-32.09216 32.09728 0 18.33984 13.75232 32.08704 32.09216 32.08704h666.99776c18.33472 0 32.08704-13.7472 32.08704-32.08704-0.00512-18.33472-13.75232-32.09728-32.08704-32.09728z" p-id="3263"></path></svg>